<svg xmlns="http://www.w3.org/2000/svg" version="1.1" xmlns:xlink="http://www.w3.org/1999/xlink" xmlns:svgjs="http://svgjs.dev/svgjs" width="100%" height="100%" viewBox="0 0 1000 600"><rect width="1000" height="600" x="0" y="0" fill="none"/><g><circle r="166.66666666666666" cx="345.24611918131507" cy="367.4683039959632" fill="#ac7b94" transform="matrix(0.6999686415377543,0,0,0.6999686415377542,0,42.78368730349628)"/><path d="M367.26693540480017 309.78142198697026L367.26693540480017 292.66506414019784L415.8897581879138 292.66506414019784L415.8897581879138 309.78142198697026L403.15788609499447 309.78142198697026L403.15788609499447 442.46832739684294L377.8627759766116 442.46832739684294L308.1888004394215 318.26933671558317L308.1888004394215 425.4643922617078L323.59071193372574 425.4643922617078L323.59071193372574 442.46832739684294L274.99599482852136 442.46832739684294L274.99599482852136 425.4643922617078L288.823988359904 425.4643922617078L288.823988359904 309.78142198697026L274.602515337791 309.78142198697026L274.602515337791 292.4683243948327L314.9060574597477 292.4683243948327L383.2871718131093 415.48687660390124L384.07413079457007 410.73701703722713L384.07413079457007 309.78142198697026L367.26693540480017 309.78142198697026Z " fill="#f5dadf" transform="matrix(0.6999686415377543,0,0,0.6999686415377542,0,42.78368730349628)"/><path d="M684.0024181772911 312.63163796248597L684.0024181772911 296.2371659598439L730.5745636035158 296.2371659598439L730.5745636035158 312.63163796248597L718.3796607838165 312.63163796248597L718.3796607838165 439.72244637705614L694.1513770360696 439.72244637705614L627.4159154686645 320.7615731756188L627.4159154686645 423.4356556355152L642.1682482395147 423.4356556355152L642.1682482395147 439.72244637705614L595.6230231285654 439.72244637705614L595.6230231285654 423.4356556355152L608.8678182440003 423.4356556355152L608.8678182440003 312.63163796248597L595.2461387147116 312.63163796248597L595.2461387147116 296.048723752917L633.849870819455 296.048723752917L699.3469978841975 413.8789437127928L700.1007667119052 409.3294104312714L700.1007667119052 312.63163796248597L684.0024181772911 312.63163796248597ZM802.5056460190488 439.72244637705614L802.5056460190488 430.62337981401345Q796.933140757067 435.84592097741665 790.1492213076979 439.1571197562754Q783.3922221736041 442.46831853513413 774.7777212855162 442.46831853513413L774.7777212855162 442.46831853513413Q767.589997107018 442.46831853513413 761.5598464853565 440.2070120520111Q755.5566161789703 437.9187852536128 751.1955251043759 433.98841922342274Q746.8613543450567 430.0580531932327 744.4385259702821 424.86243234510476Q742.0156975955074 419.6668114969768 742.0156975955074 413.798182766967L742.0156975955074 413.798182766967Q742.0156975955074 407.5526696231033 743.8731993495013 402.70701287355394Q745.7307011034952 397.8882764392798 748.7996170448765 394.33479482294365Q751.8685329862578 390.7813132066074 755.9873412233748 388.385405147108Q760.1061494604917 385.9625767723333 764.6018421114625 384.5088797474685Q769.0975347624333 383.0282624073284 773.7816696203311 382.4090951559971Q778.4658044782288 381.7899279046658 782.7192142917222 381.7899279046658L782.7192142917222 381.7899279046658Q789.5300540563666 381.7899279046658 794.187268598989 382.2206529490702Q798.8175628263363 382.65137799347457 802.5864069648746 383.40514682118226L802.5864069648746 383.40514682118226L802.6940882259757 375.3559725538752Q802.6940882259757 370.16035170574725 801.1865505705604 366.3376669366583Q799.6520925998698 362.4880618522941 796.933140757067 359.98447253169354Q794.187268598989 357.48088321109304 790.3376635146249 356.2425487084304Q786.5149787455358 355.03113452104304 781.7770032570875 355.03113452104304L781.7770032570875 355.03113452104304Q777.3351512366673 355.03113452104304 773.2701836301009 355.62338145709913Q769.1782957082592 356.2425487084304 765.6517344071982 357.23860037361555Q762.098252790862 358.23465203880073 759.1100977953066 359.5268271720139Q756.1219427997512 360.7920819899518 754.049078523555 362.21885869954133L754.049078523555 362.21885869954133L748.2881310546463 349.9970355645668Q751.787772040432 347.7357290814437 755.9335005928242 345.79746638162396Q760.1061494604917 343.8592036818042 764.6826030572884 342.4862676027652Q769.2859769693603 341.11333152372623 774.077793088359 340.305722065468Q778.8426888920826 339.49811260720975 783.4729831194298 339.49811260720975L783.4729831194298 339.49811260720975Q792.0067230616919 339.49811260720975 798.8175628263363 341.5440565681306Q805.6284025909806 343.5630802137762 810.366378079429 347.81649002726954Q815.1043535678773 352.0968201560382 817.634863203753 358.6653770832051Q820.1922931549041 365.233934010372 820.1922931549041 374.4137615192406L820.1922931549041 374.4137615192406L820.1115322090783 423.4356556355152L830.987339580289 423.4356556355152L830.987339580289 439.72244637705614L802.5056460190488 439.72244637705614ZM778.6542466851557 427.7159857642838L778.6542466851557 427.7159857642838Q782.1538876709415 427.7159857642838 785.6535286567271 426.85453567547506Q789.1531696425127 425.99308558666627 792.2759262144446 424.53938856180145Q795.3986827863764 423.05877122166135 798.0637939986286 421.12050852184166Q800.7019848956054 419.18224582202186 802.5056460190488 417.1093815458257L802.5056460190488 417.1093815458257L802.5864069648746 394.95396207427495L782.1538876709415 394.95396207427495Q777.0390277686392 394.95396207427495 772.8394585856964 396.08461531583646Q768.6129690874784 397.21526855739796 765.5440531460971 399.3958140946952Q762.4751372047159 401.57635963199243 760.7791573423735 404.80679746502534Q759.0562571647561 408.01031498278303 759.0562571647561 412.1829638504505L759.0562571647561 412.1829638504505Q759.0562571647561 416.05948925009 760.4830338743456 418.93996298454437Q761.909810583935 421.847357034274 764.4941608503615 423.78561973409376Q767.105431432063 425.72388243391356 770.7127536789498 426.7199340990987Q774.2931556105614 427.7159857642838 778.6542466851557 427.7159857642838ZM843.2899236610895 357.9385285707727L843.2899236610895 341.678658144507L877.1826005926599 341.678658144507L877.1826005926599 357.9385285707727L868.0027730837913 357.9385285707727L892.2310568315382 425.5354402269866L915.8940139585044 357.9385285707727L909.9177039673935 357.9385285707727L909.9177039673935 341.678658144507L940.9568274797848 341.678658144507L940.9568274797848 357.9385285707727L932.530768798624 357.9385285707727L900.4686733057722 441.2299840324715L883.0512293226698 441.2299840324715L851.0429744603684 357.9385285707727L843.2899236610895 357.9385285707727ZM950.8904238163611 308.7281922475712L950.8904238163611 292.4683218213055L982.7102364717354 292.4683218213055L982.7102364717354 349.80859335763984Q988.955749615599 344.9898569233657 996.3319160010242 342.1363035041866Q1003.7080823864494 339.30967040028287 1011.5688144468295 339.30967040028287L1011.5688144468295 339.30967040028287Q1021.2332076306529 339.30967040028287 1029.2554615826848 342.9169926471696Q1037.3046358499919 346.4973945787811 1043.119423949451 353.03903119067274Q1048.9611323641855 359.5537474872892 1052.1646498819432 368.7066546808824Q1055.3950877149762 377.83264155920045 1055.3950877149762 388.89689113733823L1055.3950877149762 388.89689113733823Q1055.3950877149762 400.7418298584589 1051.7877654680892 410.3254620964566Q1048.2073635364777 419.93601464972954 1041.8003285009627 426.85453567547506Q1035.4202137807224 433.7730567012205 1026.6172706857078 437.4880602092084Q1017.8143275906931 441.2299840324715 1007.3154046333361 441.2299840324715L1007.3154046333361 441.2299840324715Q1000.0199991937368 441.2299840324715 993.6398844734967 439.1032791257249Q987.2328494379815 436.97657421897816 982.7102364717354 433.55769417901837L982.7102364717354 433.55769417901837L982.7102364717354 439.72244637705614L965.1043502817058 439.72244637705614L965.1043502817058 308.7281922475712L950.8904238163611 308.7281922475712ZM1006.9385202194823 354.8157719988409L1006.9385202194823 354.8157719988409Q1000.0199991937368 354.8157719988409 993.6937251040472 357.66932541802Q987.3405306990826 360.49595852192374 982.7102364717354 365.34161527147313L982.7102364717354 365.34161527147313L982.7102364717354 418.05159258046035Q985.7253117825661 421.17434915239215 991.593940512576 423.5971775271669Q997.4625692425857 425.99308558666627 1006.3731935987015 425.99308558666627L1006.3731935987015 425.99308558666627Q1012.4302645356382 425.99308558666627 1018.00276979762 423.7317791035432Q1023.5752750596018 421.44355230514486 1027.8556051883704 416.86709870834824Q1032.1090150018638 412.26372479627634 1034.666444953015 405.4528850316319Q1037.223874904166 398.6420452669875 1037.223874904166 389.5698990192201L1037.223874904166 389.5698990192201Q1037.223874904166 381.224601283885 1034.8010465293912 374.7906459330944Q1032.3782181546164 368.3566905823039 1028.2594099174996 363.9148385618836Q1024.1675219956578 359.47298654146334 1018.6757776795018 357.1578394277897Q1013.1840333633459 354.8157719988409 1006.9385202194823 354.8157719988409ZM1131.2026955301487 439.72244637705614L1131.2026955301487 430.62337981401345Q1125.6032699528914 435.84592097741665 1118.8462708187976 439.1571197562754Q1112.0892716847038 442.46831853513413 1103.4747707966162 442.46831853513413L1103.4747707966162 442.46831853513413Q1096.2601263028425 442.46831853513413 1090.2568959964565 440.2070120520111Q1084.2536656900702 437.9187852536128 1079.8925746154757 433.98841922342274Q1075.5584038561565 430.0580531932327 1073.135575481382 424.86243234510476Q1070.7127471066074 419.6668114969768 1070.7127471066074 413.798182766967L1070.7127471066074 413.798182766967Q1070.7127471066074 407.5526696231033 1072.5702488606012 402.70701287355394Q1074.4008302993198 397.8882764392798 1077.4966665559764 394.33479482294365Q1080.5655824973576 390.7813132066074 1084.6843907344746 388.385405147108Q1088.8031989715914 385.9625767723333 1093.2988916225622 384.5088797474685Q1097.7945842735332 383.0282624073284 1102.4787191314308 382.4090951559971Q1107.1628539893286 381.7899279046658 1111.416263802822 381.7899279046658L1111.416263802822 381.7899279046658Q1118.2271035674664 381.7899279046658 1122.8573977948136 382.2206529490702Q1127.5146123374361 382.65137799347457 1131.2834564759746 383.40514682118226L1131.2834564759746 383.40514682118226L1131.3911377370755 375.3559725538752Q1131.3911377370755 370.16035170574725 1129.8836000816602 366.3376669366583Q1128.3491421109698 362.4880618522941 1125.6032699528914 359.98447253169354Q1122.8573977948136 357.48088321109304 1119.0347130257246 356.2425487084304Q1115.2120282566357 355.03113452104304 1110.4740527681874 355.03113452104304L1110.4740527681874 355.03113452104304Q1106.032200747767 355.03113452104304 1101.9403128259255 355.62338145709913Q1097.8753452193591 356.2425487084304 1094.3218636030228 357.23860037361555Q1090.795302301962 358.23465203880073 1087.8071473064065 359.5268271720139Q1084.818992310851 360.7920819899518 1082.746128034655 362.21885869954133L1082.746128034655 362.21885869954133L1076.9582602504709 349.9970355645668Q1080.4579012362565 347.7357290814437 1084.6305501039242 345.79746638162396Q1088.8031989715914 343.8592036818042 1093.3796525683883 342.4862676027652Q1097.98302648046 341.11333152372623 1102.747922284184 340.305722065468Q1107.5397384031826 339.49811260720975 1112.1700326305297 339.49811260720975L1112.1700326305297 339.49811260720975Q1120.6768522575164 339.49811260720975 1127.5146123374361 341.5440565681306Q1134.3254521020806 343.5630802137762 1139.0634275905286 347.81649002726954Q1143.7744827637018 352.0968201560382 1146.331912714853 358.6653770832051Q1148.8893426660038 365.233934010372 1148.8893426660038 374.4137615192406L1148.8893426660038 374.4137615192406L1148.8085817201782 423.4356556355152L1159.6843890913888 423.4356556355152L1159.6843890913888 439.72244637705614L1131.2026955301487 439.72244637705614ZM1107.3512961962556 427.7159857642838L1107.3512961962556 427.7159857642838Q1110.8509371820414 427.7159857642838 1114.3505781678268 426.85453567547506Q1117.8502191536127 425.99308558666627 1120.9729757255445 424.53938856180145Q1124.0957322974764 423.05877122166135 1126.7339231944532 421.12050852184166Q1129.3990344067051 419.18224582202186 1131.2026955301487 417.1093815458257L1131.2026955301487 417.1093815458257L1131.2834564759746 394.95396207427495L1110.8509371820414 394.95396207427495Q1105.7360772797392 394.95396207427495 1101.5365080967963 396.08461531583646Q1097.3100185985782 397.21526855739796 1094.241102657197 399.3958140946952Q1091.1721867158158 401.57635963199243 1089.4492865381983 404.80679746502534Q1087.7533066758558 408.01031498278303 1087.7533066758558 412.1829638504505L1087.7533066758558 412.1829638504505Q1087.7533066758558 416.05948925009 1089.1800833854454 418.93996298454437Q1090.6068600950348 421.847357034274 1093.1912103614613 423.78561973409376Q1095.802480943163 425.72388243391356 1099.3828828747744 426.7199340990987Q1102.9902051216613 427.7159857642838 1107.3512961962556 427.7159857642838ZM1250.055887470485 341.11333152372623L1250.055887470485 362.4073009064682L1232.0731168666016 362.4073009064682L1232.0731168666016 356.3502299695315Q1228.9503602946697 356.3502299695315 1225.6930021463618 357.5347238416436Q1222.4356439980534 358.71921771375565 1219.5820905788744 361.11512577325504Q1216.7554574749706 363.53795414802977 1214.628752568224 367.2798779712929Q1212.5020476614773 371.02180179455604 1211.5329163115675 376.1097413815829L1211.5329163115675 376.1097413815829L1211.5329163115675 423.4356556355152L1228.1965914669622 423.4356556355152L1228.1965914669622 439.72244637705614L1179.5515817645414 439.72244637705614L1179.5515817645414 423.4356556355152L1193.0925003480045 423.4356556355152L1193.1732612938304 357.9385285707727L1179.5515817645414 357.9385285707727L1179.5515817645414 341.678658144507L1210.886828744961 341.678658144507L1210.886828744961 355.21957672797Q1212.582808607303 352.177581101864 1214.7095135140498 349.56631052016235Q1216.8362184207963 346.981960253736 1219.447489002498 345.0436975539163Q1222.0587595841996 343.10543485409653 1225.2084364714067 342.0017019278103Q1228.3850336738892 340.9248893167993 1232.0731168666016 340.9248893167993L1232.0731168666016 340.9248893167993Q1236.9995345619768 340.9248893167993 1241.3606256365713 340.9248893167993Q1245.7217167111658 340.9248893167993 1250.055887470485 341.11333152372623L1250.055887470485 341.11333152372623Z " fill="#ac7b94" transform="matrix(0.6999686415377543,0,0,0.6999686415377542,0,42.78368730349628)"/></g></svg>